<?xml version="1.0" standalone="no"?>
<!DOCTYPE svg PUBLIC "-//W3C//DTD SVG 20010904//EN"
 "http://www.w3.org/TR/2001/REC-SVG-20010904/DTD/svg10.dtd">
<svg version="1.0" xmlns="http://www.w3.org/2000/svg"
 width="700.000000pt" height="700.000000pt" viewBox="0 0 700.000000 700.000000"
 preserveAspectRatio="xMidYMid meet">
<metadata>
Created by potrace 1.11, written by Peter Selinger 2001-2013
</metadata>
<g transform="translate(0.000000,700.000000) scale(0.100000,-0.100000)"
fill="#000000" stroke="none">
<path d="M1320 6488 c-14 -6 -34 -22 -45 -37 -19 -25 -20 -44 -23 -488 l-3
-462 -464 -3 -465 -3 -32 -33 -33 -32 -3 -408 c-3 -438 -1 -461 46 -497 26
-19 45 -20 489 -23 l463 -3 2 -1714 3 -1715 30 -30 c17 -16 41 -31 55 -34 14
-2 787 -5 1718 -5 l1692 -1 0 -450 c0 -396 2 -453 16 -484 30 -62 25 -61 488
-61 405 0 422 1 448 20 15 11 32 33 38 49 6 18 10 192 10 477 l0 448 463 3
c507 3 491 1 521 65 23 49 24 818 1 867 -30 63 -15 61 -522 64 l-463 3 0 1662
0 1662 490 488 c513 511 523 523 507 589 -18 70 -93 111 -161 88 -29 -9 -149
-124 -524 -501 l-487 -489 -1662 0 -1662 0 -3 463 c-3 444 -4 463 -23 489 -11
15 -36 32 -55 38 -46 13 -816 11 -850 -2z m3250 -1991 c0 -1 -522 -524 -1160
-1162 l-1160 -1160 0 1163 0 1162 1160 0 c638 0 1160 -1 1160 -3z m180 -1337
l0 -1160 -1162 0 -1163 0 1160 1160 c638 638 1161 1160 1162 1160 2 0 3 -522
3 -1160z"/>
</g>
</svg>
